<?xml version="1.0" encoding="UTF-8" standalone="no" ?>
<!DOCTYPE svg PUBLIC "-//W3C//DTD SVG 1.1//EN" "http://www.w3.org/Graphics/SVG/1.1/DTD/svg11.dtd">
<svg xmlns="http://www.w3.org/2000/svg" xmlns:xlink="http://www.w3.org/1999/xlink" version="1.1" width="1080" height="1080" viewBox="0 0 1080 1080" xml:space="preserve">
<desc>Created with Fabric.js 5.2.4</desc>
<defs>
</defs>
<rect x="0" y="0" width="100%" height="100%" fill="transparent"></rect>
<g transform="matrix(1 0 0 1 540 540)" id="d766159c-4a91-4f66-90b4-8a32e79d2478"  >
<rect style="stroke: none; stroke-width: 1; stroke-dasharray: none; stroke-linecap: butt; stroke-dashoffset: 0; stroke-linejoin: miter; stroke-miterlimit: 4; fill: rgb(255,255,255); fill-rule: nonzero; opacity: 1; visibility: hidden;" vector-effect="non-scaling-stroke"  x="-540" y="-540" rx="0" ry="0" width="1080" height="1080" />
</g>
<g transform="matrix(1 0 0 1 540 540)" id="3d220a97-4059-4a62-b8a2-1edc492cf659"  >
</g>
<g transform="matrix(1 0 0 1 1551.13 540)"  >
<g style="" vector-effect="non-scaling-stroke"   >
		<g transform="matrix(10.72 0 0 10.72 -1228.89 47.28)"  >
<path style="stroke: none; stroke-width: 1; stroke-dasharray: none; stroke-linecap: butt; stroke-dashoffset: 0; stroke-linejoin: miter; stroke-miterlimit: 4; fill: rgb(17,17,17); fill-rule: nonzero; opacity: 1;" vector-effect="non-scaling-stroke"  transform=" translate(-32.85, -55.03)" d="M 31.805 41.953 C 31.805 36.456 34.248 31.383000000000003 38.351 27.314000000000004 C 38.113 27.310000000000002 37.877 27.301000000000002 37.638999999999996 27.301000000000002 C 21.023999999999997 27.301000000000002 7.551999999999996 37.249 7.551999999999996 49.522000000000006 C 7.551999999999996 58.882000000000005 15.388999999999996 66.882 26.477999999999994 70.156 L 25.892999999999994 82.76 L 34.58599999999999 71.744 C 34.58599999999999 71.744 36.227999999999994 71.744 37.63899999999999 71.744 C 45.563999999999986 71.744 52.76799999999999 69.477 58.14099999999999 65.779 C 43.185 63.725 31.805 53.826 31.805 41.953 z" stroke-linecap="round" />
</g>
		<g transform="matrix(10.72 0 0 10.72 -906.42 -3.74)"  >
<path style="stroke: none; stroke-width: 1; stroke-dasharray: none; stroke-linecap: butt; stroke-dashoffset: 0; stroke-linejoin: miter; stroke-miterlimit: 4; fill: rgb(17,17,17); fill-rule: nonzero; opacity: 1;" vector-effect="non-scaling-stroke"  transform=" translate(-62.93, -50.27)" d="M 76.966 82.062 L 65.01599999999999 66.923 L 62.93499999999999 66.923 C 45.24199999999999 66.923 30.84599999999999 56.058 30.84599999999999 42.7 C 30.84599999999999 29.345000000000002 45.24199999999999 18.479000000000003 62.93499999999999 18.479000000000003 C 80.62599999999999 18.479000000000003 95.01999999999998 29.345000000000002 95.01999999999998 42.7 C 95.01999999999998 52.337 87.67199999999998 60.872 76.16299999999998 64.778 L 76.966 82.062 z M 62.935 22.48 C 47.448 22.48 34.846000000000004 31.551000000000002 34.846000000000004 42.701 C 34.846000000000004 53.851 47.44800000000001 62.924 62.935 62.924 L 66.956 62.924 L 72.393 69.813 L 72.024 61.864000000000004 L 73.528 61.42100000000001 C 84.153 58.281 91.02 50.934 91.02 42.701 C 91.02 31.551 78.421 22.48 62.935 22.48 z" stroke-linecap="round" />
</g>
		<g transform="matrix(34.41 0 0 34.41 562.5 0.15)"  >
<path style="stroke: none; stroke-width: 1; stroke-dasharray: none; stroke-linecap: butt; stroke-dashoffset: 0; stroke-linejoin: miter; stroke-miterlimit: 4; fill: rgb(17,17,17); fill-rule: nonzero; opacity: 1;" vector-effect="non-scaling-stroke"  transform=" translate(-28.24, -12.99)" d="M 5.58 11.14 L 6.36 6.460000000000001 C 6.48 5.840000000000001 8.74 5.840000000000001 8.58 6.840000000000001 L 6.5 19.54 C 6.4 20.16 3.2 20.16 3.1 19.54 L 1 6.84 C 0.84 5.84 3.12 5.859999999999999 3.22 6.46 L 4 11.14 L 4.8 15.9 z M 17.52 8.82 C 17.58 9.040000000000001 17.54 17.16 17.46 17.46 C 17.1 19 16.02 20 14.32 20 L 13.8 20 C 12.120000000000001 20 11.040000000000001 19 10.66 17.46 C 10.58 17.16 10.56 9.040000000000001 10.6 8.82 C 10.879999999999999 7.140000000000001 11.92 6.040000000000001 13.8 6 L 14.32 6 C 16.22 6.04 17.240000000000002 7.14 17.52 8.82 z M 13.5 17.6 C 13.84 17.78 14.28 17.78 14.620000000000001 17.6 C 15.200000000000001 17.32 15.3 16.62 15.32 16.14 L 15.32 9.88 C 15.32 9.4 15.200000000000001 8.700000000000001 14.620000000000001 8.420000000000002 C 14.280000000000001 8.240000000000002 13.840000000000002 8.240000000000002 13.5 8.420000000000002 C 12.92 8.700000000000001 12.8 9.400000000000002 12.8 9.880000000000003 L 12.8 16.14 C 12.82 16.62 12.92 17.32 13.5 17.6 z M 27.439999999999998 18.86 C 27.86 19.86 25.619999999999997 20.34 25.36 19.74 L 25.24 19.459999999999997 C 24.58 17.879999999999995 23.86 16.08 23.2 14.479999999999997 L 22.22 14.479999999999997 L 22.22 19.559999999999995 C 22.22 20.159999999999997 19.939999999999998 20.159999999999997 19.939999999999998 19.559999999999995 L 19.939999999999998 7.2599999999999945 C 19.939999999999998 6.319999999999995 19.959999999999997 6.019999999999994 21.36 5.999999999999995 L 23.419999999999998 5.999999999999995 C 24.139999999999997 5.999999999999995 24.939999999999998 6.019999999999994 25.56 6.419999999999995 C 26.919999999999998 7.279999999999995 27.34 8.799999999999994 27.32 10.339999999999995 C 27.3 11.619999999999994 27.12 12.899999999999995 25.86 13.839999999999995 C 25.72 13.919999999999995 25.599999999999998 13.999999999999995 25.48 14.079999999999995 C 26.12 15.599999999999994 26.82 17.339999999999996 27.44 18.859999999999996 z M 22.22 12.2 L 23.939999999999998 12.2 C 24.86 12.2 24.999999999999996 11.079999999999998 25.04 10.76 C 25.06 10.54 25.06 9.74 25.02 9.36 C 24.94 8.62 24.66 8.239999999999998 23.74 8.239999999999998 L 22.22 8.239999999999998 L 22.22 12.2 z M 29.939999999999998 6 L 37.9 6 C 38.5 6 38.5 8.24 37.9 8.24 L 35.06 8.28 L 35.06 19.56 C 35.06 20.16 32.78 20.16 32.78 19.56 L 32.78 8.28 L 29.94 8.24 C 29.34 8.24 29.34 6 29.94 6 z M 42.64 17.72 L 45.5 17.72 C 46.1 17.72 46.1 20 45.5 20 L 41.64 20 C 40.36 20 40.36 20 40.36 18.92 L 40.36 7.080000000000002 C 40.36 6.000000000000002 40.36 6.000000000000002 41.58 5.980000000000002 L 45.48 6.000000000000002 C 46.08 6.000000000000002 46.08 8.280000000000001 45.48 8.280000000000001 L 42.64 8.280000000000001 L 42.64 11.920000000000002 L 44.64 11.920000000000002 C 45.24 11.920000000000002 45.24 14.220000000000002 44.64 14.220000000000002 L 42.64 14.220000000000002 L 42.64 17.720000000000002 z M 51.92 10.06 L 53.32 6.200000000000001 C 53.5 5.720000000000001 55.76 6.220000000000001 55.46 7.040000000000001 L 53.160000000000004 13.200000000000001 L 55.300000000000004 18.98 C 55.6 19.82 53.36000000000001 20.3 53.18000000000001 19.82 L 51.92000000000001 16.32 L 50.68000000000001 19.82 C 50.50000000000001 20.28 48.20000000000001 19.86 48.540000000000006 18.98 L 50.68000000000001 13.2 L 48.400000000000006 7.06 C 48.06 6.14 50.34 5.64 50.540000000000006 6.22 z" stroke-linecap="round" />
</g>
</g>
</g>
</svg>